# xmcd
#
# Track frame offsets:
#	150
#	19204
#	45708
#	70035
#	85645
#	113983
#	135589
#	152758
#	168183
#	188417
#	203511
#	220590
#	234474
#
# Disc length: 3394 seconds
#
# Revision: 1
# Processed by: cddbd v1.5.2PL0 Copyright (c) Steve Scherf et al.
# Submitted via: audiograbber 1.83.01
#
DISCID=9c0d400d
DTITLE=Robi Zonca - Rebel!
DYEAR=1900
DGENRE=Blues
TTITLE0=New York City Blues
TTITLE1=Rebel
TTITLE2=Hey Man
TTITLE3=Woke Up This Morning
TTITLE4=C'mon Baby
TTITLE5=Instant Karma
TTITLE6=I Got You
TTITLE7=Wait For Me
TTITLE8=Gotta To Get Closer
TTITLE9=Please Policeman
TTITLE10=Tonight Is The Night
TTITLE11=The Man I Am
TTITLE12=Brown Panther (Pantera Maron)
EXTD=
EXTT0=
EXTT1=
EXTT2=
EXTT3=
EXTT4=
EXTT5=
EXTT6=
EXTT7=
EXTT8=
EXTT9=
EXTT10=
EXTT11=
EXTT12=
PLAYORDER=
